<?xml version="1.0" standalone="no"?>
<!DOCTYPE svg PUBLIC "-//W3C//DTD SVG 20010904//EN"
 "http://www.w3.org/TR/2001/REC-SVG-20010904/DTD/svg10.dtd">
<svg version="1.0" xmlns="http://www.w3.org/2000/svg"
 width="643.000000pt" height="643.000000pt" viewBox="0 0 643.000000 643.000000"
 preserveAspectRatio="xMidYMid meet">
<metadata>
Created by potrace 1.14, written by Peter Selinger 2001-2017
</metadata>
<g transform="translate(0.000000,643.000000) scale(0.100000,-0.100000)"
fill="#000000" stroke="none">
<path d="M2568 6339 c-7 -3 -31 -10 -53 -14 -22 -3 -56 -13 -75 -22 -19 -8
-44 -18 -55 -23 -11 -4 -36 -14 -56 -23 -21 -9 -53 -19 -73 -22 -20 -4 -33
-12 -30 -17 3 -5 0 -8 -7 -7 -20 4 -82 -11 -96 -23 -7 -6 -13 -7 -13 -3 0 4
-7 2 -15 -5 -8 -7 -15 -10 -15 -7 0 4 -19 0 -41 -8 -23 -8 -52 -15 -66 -15
-13 0 -22 -4 -19 -9 3 -4 -11 -8 -32 -8 -68 0 -111 -6 -106 -14 3 -5 -2 -6
-10 -3 -21 8 -93 -35 -100 -60 -3 -12 -5 -34 -5 -51 1 -22 3 -24 6 -8 2 12 21
40 41 61 32 34 42 39 71 36 18 -2 55 2 82 10 27 8 49 13 49 10 0 -2 13 2 29
10 16 9 31 12 35 9 3 -4 6 -1 6 6 0 7 5 9 10 6 12 -8 130 26 130 37 0 4 11 8
25 8 24 0 38 5 120 40 22 9 65 25 95 35 30 10 62 24 71 31 8 8 30 14 48 14 18
0 41 5 51 10 11 6 53 12 95 13 41 1 75 6 75 10 0 9 -154 6 -172 -4z"/>
<path d="M2778 6343 c7 -3 16 -2 19 1 4 3 -2 6 -13 5 -11 0 -14 -3 -6 -6z"/>
<path d="M2816 6339 c2 -4 14 -6 26 -4 34 7 35 16 1 13 -18 -1 -30 -5 -27 -9z"/>
<path d="M2888 6343 c7 -3 16 -2 19 1 4 3 -2 6 -13 5 -11 0 -14 -3 -6 -6z"/>
<path d="M3020 6339 c111 -8 129 -11 145 -20 17 -10 90 -33 98 -31 4 1 7 -1 7
-5 0 -5 19 -10 43 -12 72 -7 348 -6 432 3 153 15 241 9 293 -18 17 -9 32 -14
32 -11 0 3 10 -3 21 -14 21 -20 188 -89 264 -109 56 -16 196 -32 272 -32 l63
0 0 -46 c0 -27 4 -43 10 -39 6 3 10 17 10 31 0 15 6 24 15 24 10 0 15 10 15
30 l0 30 -97 0 c-162 0 -266 17 -383 63 -58 22 -118 49 -135 59 -35 21 -74 39
-95 45 -32 9 -212 18 -224 11 -18 -10 -496 -16 -490 -6 3 4 -2 5 -10 2 -8 -3
-25 0 -38 7 -13 7 -27 14 -33 15 -5 1 -30 9 -54 18 -31 12 -75 16 -155 14
l-111 -1 105 -8z"/>
<path d="M2580 6130 c0 -10 73 -60 88 -60 12 0 41 -54 57 -107 22 -71 18 -181
-11 -333 -46 -247 -45 -232 -23 -260 34 -43 46 -82 54 -169 6 -79 9 -87 43
-123 25 -27 80 -60 172 -105 74 -36 156 -83 182 -104 45 -37 68 -48 68 -31 0
4 -5 13 -10 18 -11 11 -52 147 -70 229 -5 28 -12 60 -15 73 -4 15 -13 22 -30
22 -58 0 -70 13 -83 91 -17 106 -39 277 -53 404 -6 60 -16 121 -22 135 -6 14
-10 43 -10 65 0 26 -1 30 -4 12 -5 -32 -23 -26 -23 8 0 34 -27 135 -41 151 -6
8 -28 14 -48 14 -20 0 -54 9 -76 19 -131 62 -145 67 -145 51z"/>
<path d="M2250 5982 c0 -17 32 -72 41 -72 13 0 11 17 -6 50 -15 28 -35 41 -35
22z"/>
<path d="M4710 5936 c0 -18 -11 -58 -24 -87 -50 -115 -76 -218 -86 -347 -5
-70 -14 -146 -20 -170 -8 -33 -7 -50 4 -77 8 -19 19 -35 25 -35 13 0 12 39 -2
67 -7 16 -5 50 7 120 9 55 16 122 16 150 0 80 25 194 60 269 34 74 49 144 31
144 -6 0 -11 -15 -11 -34z"/>
<path d="M1836 5921 c-10 -64 23 -270 75 -461 24 -90 118 -330 129 -330 11 0
20 38 20 87 0 32 5 46 22 57 20 15 21 22 19 128 -2 95 1 120 18 158 l20 45
-21 33 c-18 29 -19 38 -9 77 15 60 14 86 -6 126 -20 42 -30 49 -67 49 -16 0
-60 16 -97 35 -38 19 -75 35 -83 35 -8 0 -16 -16 -20 -39z"/>
<path d="M2322 5918 c2 -6 10 -14 16 -16 7 -2 10 2 6 12 -7 18 -28 22 -22 4z"/>
<path d="M4327 5878 c-47 -58 -67 -110 -67 -175 0 -46 3 -56 20 -60 18 -5 20
-14 20 -92 0 -47 -7 -126 -16 -176 -9 -49 -19 -108 -23 -130 -5 -31 -11 -40
-30 -45 -20 -4 -28 -18 -44 -70 -10 -36 -21 -78 -24 -95 -3 -16 -22 -85 -43
-152 -21 -66 -42 -153 -46 -193 -6 -63 -4 -73 13 -93 26 -29 50 -72 66 -120
l13 -39 37 48 c25 32 46 77 63 134 74 245 90 277 164 331 27 20 40 37 40 52 0
13 -24 55 -54 93 -58 76 -86 124 -86 150 0 9 9 42 19 73 11 31 29 88 41 126
12 39 29 78 37 87 17 19 49 133 59 209 6 43 3 54 -22 92 -68 101 -86 107 -137
45z"/>
<path d="M2279 5878 c-8 -13 -13 -51 -13 -90 1 -54 7 -76 29 -113 25 -44 27
-53 22 -133 -3 -48 -10 -118 -16 -157 -10 -61 -9 -91 11 -224 15 -97 28 -156
36 -159 16 -5 16 30 -4 164 -8 60 -19 132 -23 159 -4 28 -3 66 2 85 5 19 12
80 16 135 l6 100 45 17 c25 9 55 17 68 17 l22 1 0 -220 c0 -187 -2 -220 -15
-220 -8 0 -21 -10 -29 -23 -14 -20 -12 -31 18 -117 49 -145 54 -152 111 -172
65 -23 86 -51 125 -167 47 -140 70 -179 148 -251 68 -63 71 -68 97 -155 34
-112 45 -133 98 -193 54 -60 95 -169 76 -203 -22 -42 -12 -127 23 -188 17 -31
35 -69 39 -86 4 -16 19 -61 33 -100 25 -70 33 -148 20 -213 l-6 -31 -42 28
c-82 57 -283 103 -373 85 -44 -8 -51 -14 -81 -64 -18 -30 -42 -79 -53 -110
-27 -69 -52 -285 -36 -310 8 -14 3 -33 -23 -88 -31 -66 -34 -70 -54 -59 -11 7
-28 19 -36 27 -32 31 -204 105 -222 94 -4 -3 -8 -12 -8 -20 0 -7 -9 -19 -20
-26 -20 -13 -28 -58 -10 -58 15 0 12 -26 -5 -40 -15 -13 -20 -51 -8 -63 3 -4
11 3 17 15 20 39 31 30 28 -22 -4 -51 8 -66 27 -33 8 15 11 15 26 3 12 -10 15
-23 10 -47 -6 -34 4 -43 24 -19 18 22 51 8 51 -22 l0 -25 24 22 c34 32 71 25
71 -11 -1 -32 7 -35 25 -13 21 25 55 15 55 -17 0 -35 11 -44 26 -20 11 18 14
18 50 4 50 -19 66 -12 80 40 6 24 20 68 30 99 11 30 19 67 19 82 0 15 4 35 9
45 6 9 33 64 61 122 29 58 56 109 61 115 6 6 34 -4 77 -27 80 -43 236 -108
258 -108 13 0 15 -6 9 -27 -4 -16 -11 -50 -15 -78 -5 -27 -20 -86 -34 -130
-14 -44 -26 -84 -26 -88 0 -17 -54 -127 -62 -127 -5 0 -30 11 -57 24 -40 21
-50 32 -65 73 -48 133 -59 162 -79 208 -27 65 -36 74 -48 52 -6 -9 -15 -15
-20 -12 -5 4 -7 10 -4 15 3 5 1 11 -4 14 -5 3 -14 -9 -20 -26 -10 -28 -9 -35
5 -45 9 -7 21 -10 25 -7 21 13 56 -79 120 -318 8 -30 22 -46 69 -78 48 -33 61
-48 70 -80 12 -45 6 -63 -34 -98 -29 -25 -36 -27 -36 -11 0 6 -8 23 -18 37
-11 15 -38 72 -61 127 -24 55 -44 101 -46 103 -2 2 -13 -1 -24 -8 -14 -7 -21
-21 -21 -40 0 -29 0 -29 -27 -14 -95 50 -143 64 -217 64 -59 0 -77 3 -84 17
-9 15 -12 15 -51 0 -51 -21 -61 -21 -61 -2 0 25 -18 17 -76 -30 -30 -24 -61
-42 -68 -39 -7 3 -21 23 -31 45 -10 21 -22 39 -26 39 -5 0 -6 6 -3 14 3 8 1
17 -5 20 -6 4 -8 13 -5 20 3 8 1 16 -4 20 -13 8 -12 -23 5 -86 9 -32 19 -55
24 -52 5 3 9 -15 9 -40 0 -36 -4 -46 -16 -46 -11 0 -15 -6 -11 -19 3 -15 1
-18 -11 -14 -12 5 -14 1 -10 -15 4 -12 2 -22 -3 -22 -5 0 -9 -7 -9 -15 0 -8
-5 -15 -11 -15 -6 0 -8 -7 -5 -16 3 -8 2 -13 -3 -9 -14 8 -22 -60 -20 -162 2
-84 5 -95 26 -110 13 -10 23 -26 23 -36 0 -24 28 -77 40 -77 6 0 10 -12 10
-26 0 -31 18 -51 56 -60 16 -4 32 -9 37 -11 11 -7 -12 -43 -28 -43 -8 0 -15
-4 -15 -10 0 -6 36 -10 88 -10 102 0 122 -8 92 -35 -25 -23 -27 -50 -2 -40 9
4 28 10 42 12 24 4 26 2 37 -72 7 -42 22 -97 33 -122 11 -25 20 -60 20 -78 0
-28 13 -45 35 -45 11 0 26 45 36 111 15 100 56 218 87 252 30 31 69 38 57 10
-15 -35 -17 -63 -6 -63 19 0 94 50 141 95 25 23 53 45 63 49 17 5 19 1 15 -51
-2 -39 1 -58 10 -60 6 -3 12 0 12 6 0 6 6 11 13 11 15 0 37 -112 37 -186 0
-24 7 -61 16 -82 18 -43 61 -92 82 -92 9 0 0 14 -21 35 -41 40 -42 44 -58 165
-6 47 -13 103 -16 126 -4 30 1 51 18 85 l23 44 7 -55 c4 -30 7 -101 8 -157 1
-83 4 -103 16 -103 8 0 19 9 25 19 13 26 17 203 7 314 -5 48 -5 87 0 87 26 -1
66 -51 74 -91 24 -125 0 -449 -37 -490 -17 -19 -17 -21 -1 -48 9 -16 17 -49
17 -73 1 -42 1 -43 15 -18 8 14 17 45 20 70 4 25 13 70 20 100 54 218 59 340
20 493 -14 55 -29 106 -33 115 -11 23 -10 33 9 59 16 24 32 21 22 -3 -6 -15
13 -44 29 -44 14 0 54 95 78 185 12 44 25 84 30 89 5 4 20 -10 35 -34 14 -22
31 -40 37 -38 27 9 41 92 35 205 -4 62 -3 113 1 113 5 0 23 -16 42 -35 75 -78
84 -24 31 203 -10 45 -16 82 -12 82 4 0 26 -16 48 -35 23 -19 44 -35 47 -35 3
0 6 16 6 35 0 19 5 35 10 35 10 0 14 -25 10 -67 -4 -55 51 -120 182 -215 47
-34 66 -54 66 -70 0 -13 16 -58 36 -100 20 -42 36 -83 36 -92 0 -8 5 -18 10
-21 6 -3 10 -13 10 -21 0 -17 42 -84 53 -84 4 0 5 15 2 33 -6 32 -5 33 27 35
32 2 34 0 46 -41 22 -75 18 -122 -17 -178 -35 -57 -57 -130 -46 -156 34 -86
51 -697 21 -738 -19 -27 -23 -14 -30 100 -6 116 -22 165 -52 165 -84 0 -132
-95 -149 -297 -3 -46 -10 -97 -16 -115 -5 -17 -7 -34 -4 -36 11 -11 35 78 50
189 18 135 34 186 72 221 18 17 28 20 40 12 23 -14 41 -70 42 -128 1 -76 21
-176 35 -176 20 0 36 46 36 104 0 29 7 67 16 84 12 25 13 36 3 53 -7 13 -13
84 -15 174 l-4 151 35 55 c19 30 35 63 35 73 0 19 -1 19 -20 -2 -11 -12 -20
-26 -20 -31 0 -15 -16 -22 -18 -8 -1 7 -6 37 -12 67 -5 30 -12 80 -16 110 -5
50 -3 58 22 85 48 54 69 138 45 183 -5 9 -12 37 -16 61 l-7 44 31 -6 c24 -5
33 -2 46 16 34 49 10 118 -56 164 -23 15 -53 48 -66 73 -14 25 -34 51 -44 58
-13 9 -19 25 -19 51 0 23 -8 48 -20 64 -14 18 -20 40 -20 80 0 73 -15 111 -71
181 -27 34 -68 105 -95 165 -74 167 -129 238 -201 261 -21 7 -44 17 -51 23
-20 16 5 37 44 37 53 0 42 22 -41 79 -66 46 -75 56 -75 83 0 29 1 30 35 24 56
-11 59 1 15 54 -22 26 -40 58 -40 70 0 19 4 21 30 15 29 -6 30 -5 30 29 0 19
-5 47 -10 62 -11 27 -6 37 124 289 30 57 31 64 31 187 0 70 4 130 7 134 8 8
62 -25 100 -61 24 -22 26 -29 17 -53 -6 -15 -15 -92 -20 -172 -9 -151 -21
-235 -33 -248 -5 -4 -37 24 -71 61 l-64 68 -12 -40 c-10 -35 -9 -42 10 -70 66
-92 271 -222 349 -220 51 1 106 22 110 42 3 14 -6 17 -53 17 -47 0 -68 7 -131
41 -42 23 -78 48 -81 55 -9 24 120 264 143 264 37 0 134 84 134 116 0 7 -16
47 -35 90 -32 69 -37 76 -60 72 -31 -6 -59 24 -133 146 -67 110 -95 149 -141
199 -48 52 -80 67 -141 67 -58 0 -69 -9 -125 -98 l-38 -62 -66 36 c-78 43 -86
50 -72 58 6 4 11 16 11 27 0 25 -50 26 -90 2 -26 -15 -29 -15 -54 5 -19 14
-36 19 -59 15 -42 -6 -43 -8 -30 -42 8 -23 7 -32 -4 -44 -12 -12 -13 -22 -4
-53 22 -80 12 -79 -84 9 -52 46 -63 63 -74 108 -24 98 -77 167 -154 204 -46
21 -132 99 -167 150 -20 30 -30 56 -30 82 0 54 -21 116 -91 271 -60 136 -79
204 -79 295 0 51 6 55 52 31 54 -28 108 7 72 47 -27 29 -82 42 -184 42 -80 -1
-101 -4 -133 -23 -52 -31 -63 -19 -51 57 9 56 10 58 37 55 15 -2 27 1 27 7 0
6 -5 11 -12 11 -6 0 -22 9 -34 21 l-22 21 -13 -24z m298 -570 c-3 -8 -6 -5 -6
6 -1 11 2 17 5 13 3 -3 4 -12 1 -19z m23 -75 c0 -41 -14 -36 -25 10 -6 21 -4
27 9 27 12 0 16 -10 16 -37z m135 -289 c69 -82 91 -103 153 -139 69 -40 82
-58 82 -109 0 -19 5 -47 10 -61 l10 -27 -31 26 c-17 14 -37 26 -44 26 -19 0
-58 53 -88 120 -14 30 -37 66 -52 80 -36 33 -109 141 -91 134 8 -3 31 -26 51
-50z m1098 -366 c31 -30 61 -73 94 -138 43 -86 56 -120 48 -120 -9 0 -84 111
-94 140 -18 54 -78 110 -117 110 -38 0 -51 14 -34 35 21 26 55 16 103 -27z
m-768 -68 c-6 -9 20 -34 65 -63 50 -32 100 -110 99 -156 0 -20 -4 -45 -9 -56
-9 -24 -12 -17 -29 66 -13 62 -24 76 -91 109 -25 12 -59 33 -77 46 l-31 24 20
42 20 42 19 -23 c10 -13 17 -26 14 -31z m543 -133 c18 -22 36 -102 28 -130 -4
-19 -13 -27 -29 -27 -21 0 -22 4 -22 85 0 85 3 96 23 72z m476 -225 c-8 -18
-14 -42 -12 -54 1 -13 -2 -25 -7 -28 -6 -3 -11 15 -13 42 -3 38 1 49 19 62 30
20 32 16 13 -22z m-1129 -777 c76 -19 144 -40 151 -46 18 -15 18 -59 1 -59 -7
0 -36 6 -63 14 -27 8 -84 17 -127 20 -97 8 -118 16 -138 52 -36 64 -12 67 176
19z m-213 -417 c22 -6 44 -20 49 -30 7 -14 6 -16 -6 -12 -11 4 -13 2 -9 -9 11
-29 -15 -27 -32 3 -10 16 -21 30 -24 31 -40 6 -48 4 -43 -10 5 -13 4 -14 -8
-3 -12 11 -11 15 5 28 24 17 20 17 68 2z m-30 -62 c2 -19 0 -32 -4 -30 -8 5
-12 64 -4 64 2 0 6 -15 8 -34z m636 -113 c-5 -88 -45 -227 -103 -358 l-22 -50
-8 38 c-6 31 3 69 54 225 34 103 61 194 61 203 0 15 8 29 18 29 2 0 2 -39 0
-87z m-888 37 c-7 -17 -15 -29 -17 -26 -3 3 1 18 8 35 17 39 26 31 9 -9z m189
-12 c22 -26 23 -27 2 -21 -11 3 -19 9 -16 13 3 5 1 11 -5 15 -5 3 -10 11 -10
17 0 6 1 9 3 7 1 -2 13 -16 26 -31z m1456 -318 c-3 -5 -18 -10 -33 -9 l-27 1
25 8 c35 11 42 11 35 0z m-70 -30 c-4 -6 -1 -17 5 -25 11 -13 7 -15 -24 -15
-40 0 -43 5 -19 32 17 19 49 25 38 8z m-932 -25 c40 -21 48 -35 18 -35 -21 0
-71 36 -71 51 0 6 3 9 8 7 4 -2 24 -13 45 -23z m969 -40 c2 3 5 -2 5 -10 0
-19 0 -19 -23 7 -12 14 -13 18 -3 10 9 -6 18 -10 21 -7z m-1747 -25 c-3 -5
-12 -10 -18 -10 -7 0 -6 4 3 10 19 12 23 12 15 0z m-15 -34 c0 -3 -4 -8 -10
-11 -5 -3 -10 -1 -10 4 0 6 5 11 10 11 6 0 10 -2 10 -4z m402 -20 c93 -24 140
-47 135 -65 -9 -27 -24 -74 -43 -126 -9 -27 -18 -75 -19 -105 -2 -91 -20 -129
-71 -150 -24 -11 -65 -22 -92 -25 -45 -6 -48 -5 -74 28 -25 32 -34 56 -58 155
-9 34 -15 42 -34 42 -20 0 -26 8 -35 44 -21 83 -15 112 30 157 22 22 50 44 62
49 34 14 140 12 199 -4z m-46 -708 c-9 -12 -16 -26 -16 -30 0 -12 38 -10 62 3
11 6 22 9 24 6 2 -2 -4 -28 -15 -58 -10 -30 -21 -80 -25 -111 -4 -32 -12 -60
-17 -64 -5 -3 -6 -11 -3 -17 4 -7 4 -9 -1 -5 -12 11 -63 167 -71 216 -7 46 10
76 51 92 26 10 31 -4 11 -32z"/>
<path d="M3180 5785 l-21 -35 28 -25 c15 -13 31 -25 36 -25 15 0 6 22 -15 40
-21 17 -21 18 -5 43 19 30 21 37 8 37 -5 0 -19 -16 -31 -35z"/>
<path d="M1700 5784 c0 -10 5 -26 10 -34 8 -11 9 -7 4 15 -8 37 -14 45 -14 19z"/>
<path d="M1711 5714 c0 -11 3 -14 6 -6 3 7 2 16 -1 19 -3 4 -6 -2 -5 -13z"/>
<path d="M1724 5656 c15 -37 16 -39 16 -56 0 -5 7 -7 15 -4 13 5 12 10 -5 31
-11 14 -20 32 -20 39 0 7 -5 16 -11 19 -5 4 -3 -9 5 -29z"/>
<path d="M3170 5660 c0 -12 12 -44 27 -73 15 -29 31 -61 34 -72 6 -17 7 -15 8
8 1 15 -10 50 -24 77 -14 27 -25 56 -25 65 0 8 -4 15 -10 15 -5 0 -10 -9 -10
-20z"/>
<path d="M1770 5551 c0 -6 5 -13 10 -16 6 -3 10 -15 10 -26 0 -10 7 -19 15
-19 18 0 19 8 3 43 -12 26 -38 38 -38 18z"/>
<path d="M3212 5478 c-14 -14 -16 -40 -3 -53 5 -6 11 -21 13 -34 1 -14 9 -26
16 -29 17 -5 15 39 -3 65 -8 12 -12 24 -8 26 17 10 71 -23 136 -84 65 -61 68
-67 82 -134 18 -88 18 -113 1 -163 -8 -23 -11 -44 -7 -47 10 -6 21 18 21 47 0
30 73 93 125 108 25 7 45 19 45 26 0 22 -21 17 -83 -21 -32 -19 -60 -35 -62
-35 -7 0 -25 65 -25 92 0 16 -6 41 -14 57 -19 35 -149 153 -184 166 -15 5 -30
13 -33 17 -3 4 -10 3 -17 -4z"/>
<path d="M1800 5460 c0 -12 4 -18 11 -15 6 4 5 -2 -2 -13 -7 -12 -10 -24 -6
-28 13 -13 29 13 25 42 -4 33 -28 46 -28 14z"/>
<path d="M1802 5347 c5 -56 25 -59 25 -4 0 31 -4 44 -14 44 -10 0 -13 -11 -11
-40z"/>
<path d="M3181 5326 c-15 -18 -10 -108 5 -113 8 -3 11 17 10 62 0 36 -2 65 -2
65 -1 0 -7 -6 -13 -14z"/>
<path d="M1794 5244 c7 -72 26 -80 26 -11 0 44 -3 57 -15 57 -12 0 -14 -10
-11 -46z"/>
<path d="M1830 5186 c0 -8 12 -28 26 -45 14 -17 28 -46 31 -66 3 -19 10 -35
15 -35 5 0 7 -4 3 -9 -3 -5 -1 -12 4 -15 5 -3 7 -15 4 -25 -3 -10 0 -22 6 -25
6 -4 8 -18 5 -32 -4 -13 -2 -24 4 -24 6 0 8 -10 5 -21 -4 -15 -2 -20 7 -17 7
2 15 15 17 28 5 34 -55 218 -75 230 -11 6 -12 10 -4 10 7 0 10 5 7 10 -4 6
-11 7 -17 4 -6 -4 -8 -3 -5 3 3 5 -3 17 -14 26 -15 13 -19 14 -19 3z m97 -208
c-3 -8 -6 -5 -6 6 -1 11 2 17 5 13 3 -3 4 -12 1 -19z"/>
<path d="M4610 5131 c0 -27 5 -53 10 -56 13 -8 13 -106 0 -139 -5 -15 -6 -26
0 -26 22 0 33 45 30 132 -1 38 3 69 9 73 13 8 15 45 2 45 -5 0 -12 -6 -15 -12
-3 -7 -4 -4 -3 7 1 11 -5 21 -15 23 -15 3 -18 -4 -18 -47z"/>
<path d="M3640 5145 c0 -8 4 -15 10 -15 5 0 7 7 4 15 -4 8 -8 15 -10 15 -2 0
-4 -7 -4 -15z"/>
<path d="M2113 5039 c3 -57 9 -126 14 -154 5 -34 4 -66 -4 -99 -13 -51 -13
-332 0 -353 4 -6 3 -14 -1 -17 -11 -7 -3 -56 9 -56 5 0 9 -8 8 -17 0 -11 -3
-13 -6 -5 -2 6 -8 10 -13 7 -7 -5 -26 89 -22 108 1 4 -6 7 -15 7 -11 0 -14 3
-7 8 12 8 17 75 5 68 -4 -3 -6 17 -3 45 3 37 1 54 -9 60 -10 6 -10 9 -2 9 14
0 12 127 -2 185 -14 59 -48 145 -55 140 -4 -2 -10 -32 -14 -66 -3 -34 -10 -67
-16 -74 -10 -12 -11 -47 -3 -135 4 -39 8 -49 13 -35 4 11 6 28 4 38 -1 9 3 17
9 17 7 0 6 4 -3 10 -9 6 -10 10 -3 10 8 0 12 16 11 46 0 35 -4 44 -15 40 -8
-3 -11 -1 -8 4 12 20 27 9 46 -35 11 -26 25 -43 31 -39 7 4 7 1 0 -12 -11 -21
-9 -124 3 -144 6 -9 4 -11 -5 -5 -16 10 -3 -96 14 -107 8 -5 7 -8 -2 -8 -9 0
-11 -7 -6 -22 4 -13 7 -31 6 -41 0 -9 3 -15 9 -12 5 4 9 2 9 -4 0 -5 3 -18 6
-28 5 -16 4 -16 -12 2 -15 18 -16 18 -10 2 3 -10 6 -28 6 -38 0 -11 4 -18 9
-15 5 3 12 -1 15 -10 3 -8 2 -12 -3 -9 -5 3 -12 1 -15 -4 -4 -5 -2 -12 4 -16
6 -4 8 -10 5 -15 -5 -9 25 -23 33 -15 3 2 0 11 -7 19 -9 11 -8 14 6 12 15 -1
18 8 21 48 1 32 -2 52 -10 58 -9 5 -10 8 -1 8 8 0 11 23 11 73 0 39 1 86 2
102 2 26 3 24 11 -15 5 -25 11 -70 13 -100 2 -30 7 -62 11 -71 3 -10 2 -20 -4
-24 -15 -9 -14 -62 2 -72 9 -5 13 -33 13 -88 1 -198 3 -215 21 -208 11 4 12 8
5 11 -7 2 -12 11 -12 19 0 9 6 13 15 9 21 -8 20 57 -1 78 -8 9 -12 16 -7 16 4
0 1 5 -7 10 -8 5 -10 10 -3 10 6 0 10 8 8 18 -13 64 -14 83 -4 77 9 -6 8 111
-1 280 0 11 -9 28 -18 39 -9 11 -11 16 -4 12 15 -9 15 -6 -4 74 -15 67 -31
213 -43 384 -4 69 -10 101 -19 104 -11 3 -12 -17 -9 -99z"/>
<path d="M3630 5084 c0 -6 9 -23 20 -37 11 -14 20 -29 20 -34 0 -5 7 -18 15
-29 14 -18 14 -18 15 7 0 25 -69 117 -70 93z"/>
<path d="M3710 4943 c0 -13 53 -63 67 -63 23 0 14 18 -20 44 -35 26 -47 31
-47 19z"/>
<path d="M1936 4847 c3 -10 9 -15 12 -12 3 3 0 11 -7 18 -10 9 -11 8 -5 -6z"/>
<path d="M1932 4815 c4 -4 4 -13 -1 -19 -6 -7 -4 -18 5 -30 13 -19 14 -18 14
11 0 18 -6 35 -12 39 -7 4 -10 4 -6 -1z"/>
<path d="M4545 4773 c-14 -27 -30 -55 -35 -63 -104 -170 -141 -300 -106 -367
8 -17 13 -33 10 -35 -2 -3 -6 -14 -9 -24 -4 -20 -25 -75 -51 -132 -21 -45 -21
-147 0 -196 9 -21 16 -56 16 -77 0 -22 5 -39 10 -39 12 0 13 102 2 115 -19 22
-34 119 -23 148 6 16 9 32 6 37 -3 4 2 11 11 14 10 4 14 14 11 26 -3 11 -1 20
5 20 6 0 8 7 4 15 -3 8 -1 15 4 15 6 0 10 6 10 14 0 7 6 19 13 25 15 12 16 79
1 102 -5 8 -7 22 -6 32 2 9 -2 17 -9 17 -9 0 -8 4 1 15 7 8 10 22 6 30 -3 8
-1 15 4 15 6 0 10 10 10 23 0 25 44 122 85 188 16 24 28 50 28 56 0 7 4 13 8
13 4 0 12 14 18 30 14 43 7 37 -24 -17z"/>
<path d="M1915 4740 c3 -5 6 -25 7 -45 1 -23 6 -35 15 -35 9 0 11 5 7 12 -5 7
-7 24 -6 39 1 16 -4 29 -13 33 -9 3 -13 2 -10 -4z"/>
<path d="M2380 4678 c0 -26 16 -55 25 -47 8 8 -6 69 -16 69 -5 0 -9 -10 -9
-22z"/>
<path d="M2391 4549 c-6 -19 -21 -52 -32 -74 l-20 -40 30 29 c17 16 34 44 37
62 9 48 0 63 -15 23z"/>
<path d="M2332 4415 c6 -32 50 -53 116 -57 73 -5 69 9 -7 21 -29 5 -66 18 -83
31 -26 19 -29 20 -26 5z"/>
<path d="M2584 4389 c-3 -6 -20 -17 -37 -24 -28 -12 -29 -13 -11 -23 34 -18
94 -19 94 -1 0 6 -8 8 -19 4 -23 -7 -38 23 -16 31 17 7 20 24 6 24 -6 0 -13
-5 -17 -11z"/>
<path d="M2592 4260 c0 -14 2 -19 5 -12 2 6 2 18 0 25 -3 6 -5 1 -5 -13z"/>
<path d="M2317 4215 c18 -55 12 -168 -11 -194 -13 -16 -66 -115 -66 -126 0
-18 20 1 34 33 9 20 25 53 36 73 12 20 23 61 27 90 3 30 9 56 13 59 10 7 -23
103 -37 107 -9 3 -8 -9 4 -42z"/>
<path d="M2590 4216 c0 -20 19 -30 54 -28 28 2 28 2 12 -22 -18 -28 -21 -66
-6 -66 6 0 10 11 10 25 0 14 7 28 15 31 25 10 17 41 -12 52 -58 22 -73 24 -73
8z"/>
<path d="M2456 4177 c-33 -24 -68 -126 -75 -224 -6 -76 -11 -97 -29 -116 -12
-13 -22 -27 -22 -31 0 -19 86 -128 131 -166 27 -23 47 -46 44 -51 -9 -13 14
-216 31 -276 25 -91 38 -74 84 112 41 164 68 219 118 243 36 16 37 19 40 73 4
69 -8 84 -76 93 -28 3 -55 13 -62 21 -7 8 -19 15 -26 15 -8 0 -16 12 -20 28
-3 15 -24 74 -46 132 -23 58 -45 117 -51 133 -11 31 -16 32 -41 14z"/>
<path d="M2648 4074 c-13 -12 -9 -48 11 -105 12 -37 16 -61 10 -77 -9 -25 -4
-42 12 -42 13 0 11 124 -3 138 -6 6 -14 30 -17 53 -3 22 -9 37 -13 33z"/>
<path d="M2195 3970 c-3 -5 -1 -10 4 -10 6 0 11 5 11 10 0 6 -2 10 -4 10 -3 0
-8 -4 -11 -10z"/>
<path d="M2181 3931 c-7 -12 -10 -25 -7 -29 3 -5 -6 -30 -18 -58 -20 -41 -23
-62 -21 -129 4 -102 4 -99 12 -92 3 4 11 -3 18 -16 6 -12 18 -20 26 -19 8 2
11 0 7 -4 -4 -4 -3 -13 3 -21 6 -7 8 -13 3 -13 -4 0 1 -7 12 -15 16 -13 16
-14 2 -9 -14 5 -18 1 -18 -20 0 -14 -3 -26 -8 -26 -4 0 -8 -18 -8 -40 -1 -22
2 -40 7 -40 5 0 9 6 10 13 0 6 4 3 9 -8 8 -18 9 -17 9 7 1 14 -5 29 -11 31 -8
3 -6 6 5 6 9 1 17 7 17 14 1 6 3 28 6 47 4 30 -2 46 -39 103 -40 61 -44 72
-41 118 3 41 12 83 29 139 2 7 17 44 21 50 1 3 -1 12 -6 19 -6 11 -10 9 -19
-8z m-10 -298 c13 -17 13 -17 -6 -3 -11 8 -22 16 -24 17 -2 2 0 3 6 3 6 0 17
-8 24 -17z"/>
<path d="M2227 3796 c-4 -10 1 -35 12 -59 19 -41 19 -41 20 -12 0 17 -6 43
-13 60 -10 25 -13 27 -19 11z"/>
<path d="M4364 3773 c-3 -16 -10 -41 -15 -57 -5 -16 -9 -54 -9 -85 0 -84 -28
-229 -56 -290 -13 -29 -24 -62 -24 -72 0 -19 28 -73 63 -124 20 -27 21 -41 19
-155 -1 -69 -7 -149 -13 -179 -19 -96 -16 -218 8 -306 12 -44 24 -92 27 -106
3 -15 21 -46 40 -68 67 -81 61 -161 -39 -466 -16 -49 -49 -235 -42 -241 2 -3
9 15 15 38 15 60 61 240 82 318 10 36 25 108 34 160 18 112 12 154 -33 210
-17 22 -31 47 -31 58 0 10 -11 50 -24 88 -37 106 -41 156 -17 248 18 67 20 96
14 197 -5 105 -4 119 10 125 27 10 20 43 -21 89 -21 24 -46 59 -57 79 l-19 35
27 58 c36 79 48 131 53 238 6 115 10 143 23 178 14 35 14 57 1 57 -5 0 -12
-12 -16 -27z"/>
<path d="M2436 3487 c-8 -16 -3 -162 10 -274 8 -68 29 -71 38 -5 3 26 9 64 12
86 8 47 -10 42 -20 -6 -12 -61 -25 -14 -28 102 -2 73 -6 109 -12 97z"/>
<path d="M2189 3377 c7 -10 9 -17 4 -17 -13 0 -13 -89 0 -97 6 -4 8 0 4 10 -3
10 -2 17 3 17 16 0 6 93 -10 98 -13 5 -13 3 -1 -11z"/>
<path d="M4130 3227 c0 -31 -6 -61 -15 -74 -18 -25 -3 -42 20 -23 17 14 22
150 5 150 -5 0 -10 -24 -10 -53z"/>
<path d="M2180 3221 c0 -12 5 -21 10 -21 6 0 10 6 10 14 0 8 -4 18 -10 21 -5
3 -10 -3 -10 -14z"/>
<path d="M4077 3213 c-4 -3 -7 -16 -7 -27 -1 -20 -21 -56 -33 -56 -3 0 -8 14
-12 30 -4 17 -13 30 -20 30 -11 0 -11 -8 1 -47 8 -25 14 -71 15 -102 1 -73 20
-153 38 -159 10 -3 13 3 9 25 -2 17 2 35 9 42 17 15 16 41 -1 82 -15 34 -15
33 -9 -23 4 -43 2 -58 -7 -58 -9 0 -11 23 -8 91 3 82 5 93 26 107 14 9 22 24
22 43 0 28 -9 37 -23 22z"/>
<path d="M2183 3155 c1 -19 5 -35 9 -35 4 0 8 16 8 35 0 19 -4 35 -9 35 -5 0
-8 -16 -8 -35z"/>
<path d="M2180 3059 c0 -5 5 -7 10 -4 6 3 10 1 10 -4 0 -6 -5 -11 -10 -11 -6
0 -11 -19 -11 -42 -1 -160 -1 -197 1 -230 2 -21 6 -38 10 -38 4 0 8 -12 8 -26
0 -15 4 -29 10 -33 6 -3 14 -19 17 -34 6 -21 10 -25 21 -17 15 13 7 43 -9 33
-6 -4 -7 -1 -3 6 5 7 0 19 -10 27 -11 9 -12 12 -4 8 12 -7 11 -2 -3 19 -9 15
-15 27 -11 27 4 0 2 6 -5 13 -6 8 -9 23 -6 35 2 12 1 22 -4 22 -12 0 -2 133
11 141 9 6 8 12 -2 23 -11 14 -10 16 4 10 12 -5 16 0 16 21 0 14 -5 35 -10 46
-11 20 -30 26 -30 8z"/>
<path d="M3074 2710 c28 -11 52 -18 54 -15 6 6 -67 35 -87 35 -9 -1 6 -10 33
-20z"/>
<path d="M2242 2608 c-15 -15 -16 -38 -1 -38 5 0 8 4 5 9 -4 5 -1 11 5 13 7 2
10 10 8 16 -3 10 -7 10 -17 0z"/>
<path d="M3277 1078 c-3 -7 15 -50 40 -96 65 -120 96 -241 159 -612 48 -287
64 -350 86 -350 22 0 43 32 58 90 9 32 26 59 63 96 76 74 73 67 117 240 50
196 89 326 100 338 5 5 12 -2 15 -17 9 -35 33 -55 41 -34 6 16 -31 97 -50 109
-29 19 -63 -62 -107 -260 -44 -198 -73 -279 -118 -327 -48 -52 -65 -79 -81
-137 -14 -53 -35 -63 -43 -21 -3 16 -15 61 -26 101 -11 40 -27 116 -35 170
-62 391 -85 481 -164 644 -37 77 -46 88 -55 66z"/>
</g>
</svg>
